# xmcd
#
# Track frame offsets: 
#        150
#        10129
#        24890
#        40408
#        56558
#        72224
#        86920
#        100126
#        116186
#        132005
#        149966
#        161844
#        171863
#        185349
#        198957
#        211001
#        220417
#        235246
#        245028
#        258331
#        274471
#        284968
#        297880
#        311711
#
# Disc length: 4351 seconds
#
# Revision: 1
# Processed by: cddbd v1.5.2PL0 Copyright (c) Steve Scherf et al.
# Submitted via: ExactAudioCopyFreeDBPlugin 1.0
#
DISCID=7f10fd18
DTITLE=Ray Charles - Ray Charles:  Eighteen Classic Albums [Real Gone 
DTITLE=Jazz]
DYEAR=2017
DGENRE=Rhythm and Blues
TTITLE0=Bye Bye Love
TTITLE1=You Don't Know Me
TTITLE2=Half as Much
TTITLE3=I Love You So Much it Hurts
TTITLE4=Just a Little Lovin'
TTITLE5=Born to Lose
TTITLE6=Worried Mind
TTITLE7=It Makes No Difference
TTITLE8=You Win Again
TTITLE9=Careless Love
TTITLE10=I Can't Stop Loving You
TTITLE11=Hey Good Looking
TTITLE12=You Are My Sunshine
TTITLE13=No Letter Today
TTITLE14=Someday (You'll Want Me to Want You)
TTITLE15=Don't Tell Me Your troubles
TTITLE16=Midnight
TTITLE17=Oh, Lonesome Me
TTITLE18=Take These Chains (From My Heart)
TTITLE19=Your Cheating Heart
TTITLE20=I'll Never Stand in Your Way
TTITLE21=Making Believe
TTITLE22=Teardrops in My Heart
TTITLE23=Hang Your Head in Shame
EXTD=YEAR: 1962
EXTT0=
EXTT1=
EXTT2=
EXTT3=
EXTT4=
EXTT5=
EXTT6=
EXTT7=
EXTT8=
EXTT9=
EXTT10=
EXTT11=
EXTT12=
EXTT13=
EXTT14=
EXTT15=
EXTT16=
EXTT17=
EXTT18=
EXTT19=
EXTT20=
EXTT21=
EXTT22=
EXTT23=
PLAYORDER=
